<?xml version="1.0" encoding="UTF-8" standalone="no"?>
<!DOCTYPE svg PUBLIC "-//W3C//DTD SVG 1.1//EN" "http://www.w3.org/Graphics/SVG/1.1/DTD/svg11.dtd">

<!-- Created with Vectornator (http://vectornator.io/) -->
<svg height="100%" stroke-miterlimit="10" style="fill-rule:nonzero;clip-rule:evenodd;stroke-linecap:round;stroke-linejoin:round;" version="1.1" viewBox="0 0 841.995 595.35" width="100%" xml:space="preserve" xmlns="http://www.w3.org/2000/svg" xmlns:vectornator="http://vectornator.io" xmlns:xlink="http://www.w3.org/1999/xlink">
<metadata>
<vectornator:setting key="IsTimeLapseWatermarkDisabled" value="false"/>
<vectornator:setting key="UndoHistoryDisabled" value="true"/>
<vectornator:setting key="VNDimensionsVisible" value="true"/>
<vectornator:setting key="VNSnapToGuides" value="true"/>
<vectornator:setting key="WDCMYKEnabledKey" value="false"/>
<vectornator:setting key="WDDisplayWhiteBackground" value="false"/>
<vectornator:setting key="WDDynamicGuides" value="false"/>
<vectornator:setting key="WDGuidesVisible" value="true"/>
<vectornator:setting key="WDIsolateActiveLayer" value="false"/>
<vectornator:setting key="WDOutlineMode" value="false"/>
<vectornator:setting key="WDRulersVisible" value="true"/>
<vectornator:setting key="WDSnapToEdges" value="false"/>
<vectornator:setting key="WDSnapToGrid" value="false"/>
<vectornator:setting key="WDSnapToPoints" value="false"/>
<vectornator:setting key="WDUnits" value="Millimeters"/>
</metadata>
<defs/>
<g id="Layer-1" vectornator:layerName="Layer 1"/>
<g id="Layer-2" vectornator:layerName="Layer 2">
<path d="M406.838 142.33C406.838 142.33 410.832 135.922 411.876 132.317C412.92 128.712 415.383 118.128 418.43 114.826C421.477 111.524 428.068 107.324 433.687 107.968C439.307 108.612 443.677 114.607 443.81 118.625C443.944 122.643 441.625 136.65 441.067 140.534C440.509 144.418 435.969 161.314 434.088 165.234C432.206 169.155 423.054 194.507 422.12 198.16C421.185 201.814 416.184 218.855 415.019 222.885C413.854 226.915 406.752 246.115 403.584 253.896C400.416 261.676 374.464 324.767 373.797 326.709C373.129 328.651 346.04 388.57 342.714 391.75C339.389 394.93 340.42 394.626 339.692 396.763C338.964 398.899 336.33 404.094 335.407 405.211C334.485 406.328 334.097 408.099 333.526 408.925C332.955 409.751 331.924 410.709 330.843 411.134C329.763 411.559 330.316 412.742 330.547 413.52C330.778 414.298 318.702 437.412 317.822 438.008C316.942 438.604 311.66 443.097 311.869 441.191C312.079 439.285 316.636 417.804 316.872 417.32C317.108 416.837 323.598 408.727 323.625 407.873C323.652 407.02 323.691 397.542 324.303 397.617C324.915 397.692 326.885 398.589 327.035 396.426C327.185 394.262 328.407 387.429 329.234 386.774C330.061 386.12 332.723 384.541 332.734 383.43C332.745 382.319 332.82 373.237 331.639 374.547C330.459 375.856 325.101 393.366 324.86 393.79C324.619 394.214 328.558 375.91 332.949 370.284C337.34 364.659 338.011 360.92 338.349 359.342C338.687 357.764 341.143 341.256 342.083 339.066C343.022 336.876 350.805 316.895 351.492 314.898C352.179 312.902 357.836 295.71 358.136 294.207C358.437 292.704 364.209 273.945 364.821 271.948C365.433 269.951 372.296 250.634 373.364 247.993C374.433 245.352 378.62 234.458 379.323 230.786C380.026 227.115 381.792 223.888 382.367 222.262C382.941 220.636 386.463 208.557 386.613 207.017C386.763 205.476 390.941 183.899 392.014 180.47C393.088 177.04 394.9 170.412 400.504 164.818C406.108 159.225 409.566 152.313 410.098 148.465C410.629 144.616 411.349 140.391 410.41 139.656C409.471 138.92 406.838 142.33 406.838 142.33Z" fill="none" fill-rule="evenodd" opacity="1" stroke="#000000" stroke-linecap="round" stroke-linejoin="round" stroke-width="1"/>
<path d="M248.906 168.793C248.906 168.793 248.725 162.271 247.804 160.737C246.882 159.203 246.106 155.533 246.778 153.603C247.45 151.673 252.809 143.695 258.978 140.86C265.148 138.025 267.034 138.602 268.077 139.171C269.12 139.74 272.403 144.495 273.997 146.245C275.59 147.994 277.848 152.155 278.175 154.154C278.503 156.153 279.424 162.237 281.449 165.993C283.474 169.75 287.55 177.426 289.928 179.46C292.306 181.493 300.783 199.234 302.558 201.354C304.333 203.473 314.084 217.511 318.246 221.268C322.408 225.024 328.448 233.236 329.111 233.89C329.774 234.545 337.197 244.025 337.197 244.025C337.197 244.025 336.175 245.347 337.573 245.722C338.972 246.097 339.1 246.062 339.858 246.992C340.617 247.923 343.039 250.464 343.039 250.464L343.145 252.454L344.323 252.097L353.438 260.129L353.279 264.863C353.279 264.863 341.214 263.094 340.442 262.565C339.67 262.035 339.374 258.599 338.174 258.316C336.974 258.034 332.664 258.788 332.104 258.369C331.544 257.95 333.688 256.318 333.057 256.252C332.426 256.186 328.637 256.11 327.988 255.113C327.34 254.116 328.716 252.639 328.028 252.255C327.34 251.871 320.575 252.432 322.269 253.637C323.963 254.841 329.915 258.013 329.915 258.013C329.915 258.013 323.218 257.51 320.112 252.022C317.007 246.534 313.72 247.222 313.72 247.222C313.72 247.222 308.865 246.815 303.02 241.305C297.175 235.795 285.97 225.748 284.073 224.354C282.176 222.96 274.571 212.347 273.45 210.57C272.33 208.792 269.755 205.68 268.37 203.536C266.985 201.392 264.576 197.793 262.834 196.421C261.091 195.048 254.494 189.178 253.709 185.38C252.924 181.581 254.691 177.873 254.823 174.979C254.955 172.085 251.676 159.798 248.906 168.793Z" fill="none" fill-rule="evenodd" opacity="1" stroke="#000000" stroke-linecap="round" stroke-linejoin="round" stroke-width="1"/>
<path d="M390.503 309.765C390.503 309.765 392.446 306.036 392.108 304.458C391.769 302.879 391.443 299.194 392.571 297.54C393.699 295.886 398.612 290.691 405.511 288.711C412.41 286.731 416.884 287.658 417.586 288.047C418.288 288.435 422.411 298.724 422.605 301.299C422.799 303.875 421.49 308.03 421.452 309.753C421.415 311.476 422.151 320.831 423.849 325.618C425.547 330.405 426.538 335.782 426.632 337.21C426.726 338.639 428.621 362.109 431.397 368.921C434.173 375.732 438.408 397.655 438.408 397.655C438.408 397.655 436.728 398.965 438.815 400.613C440.902 402.26 439.057 404.275 439.934 405.917C440.811 407.558 438.029 406.681 439.282 407.164C440.536 407.646 440.466 407.339 440.623 408.304C440.78 409.269 443.907 417.409 443.518 417.753C443.13 418.098 441.501 421.213 440.987 420.93C440.473 420.648 431.976 414.727 431.669 413.925C431.362 413.123 432.634 410.203 432.039 409.896C431.443 409.589 426.412 407.834 427.07 407.439C427.727 407.044 429.244 406.506 428.555 406.117C427.865 405.729 424.914 403.786 425.039 403.203C425.165 402.621 427.088 401.436 426.625 401.085C426.161 400.734 420.365 399.287 420.872 400.158C421.38 401.029 425.158 406.593 425.158 406.593C425.158 406.593 420.591 404.3 419.694 398.403C418.798 392.507 419.707 394.606 418.635 393.641C417.564 392.676 413.08 391.526 410.962 385.611C408.844 379.696 407.302 375.66 406.068 373.881C404.833 372.101 399.207 358.591 398.455 354.612C397.703 350.633 398.042 350.225 397.547 348.746C397.052 347.268 396.362 344.843 396.181 343.207C395.999 341.572 394.263 335.963 392.007 332.56C389.752 329.158 388.316 323.456 391.011 320.197C393.705 316.938 396.275 314.081 395.285 309.996C394.295 305.91 391.668 308.344 390.503 309.765Z" fill="none" fill-rule="evenodd" opacity="1" stroke="#000000" stroke-linecap="round" stroke-linejoin="round" stroke-width="1"/>
<path d="M477.593 343.218C477.593 343.218 493.773 318.531 496.565 314.113C499.358 309.696 505.191 301.745 511.355 290.273C517.519 278.801 536.029 254.029 536.029 254.029C536.029 254.029 537.899 253.929 538.444 251.949C538.989 249.968 542.26 244.449 543.785 243.681C545.309 242.914 546.723 243.893 546.367 242.469C546.011 241.044 546.945 239.82 548.236 238.04C549.527 236.26 555.047 228.191 556.226 227.446C557.406 226.7 561.779 225.298 561.489 226.144C561.2 226.989 558.073 241.866 558.073 241.866C558.073 241.866 552.309 246.05 552.565 247.73C552.821 249.411 553.712 254.562 552.454 254.24C551.197 253.917 550.696 253.527 550.084 256.409C549.472 259.291 549.55 260.337 548.159 260.771C546.768 261.205 544.999 260.793 545.422 264.198C545.845 267.603 546.746 270.997 548.037 267.314C549.328 263.631 550.696 261.584 551.408 259.213C552.12 256.843 552.421 256.766 552.421 256.766C552.421 256.766 550.251 267.08 546.134 271.131C542.017 275.181 541.939 275.871 541.783 277.473C541.628 279.075 540.049 289.409 538.335 292.369C536.622 295.328 523.147 322.69 521.456 327.842C519.764 332.993 510.46 346.819 509.591 349.323C508.723 351.827 505.241 358.637 503.705 360.662C502.169 362.687 498.253 375.972 497.708 378.443C497.163 380.913 494.791 388.961 485.978 393.49C477.166 398.019 475.041 406.198 476.765 407.177C478.49 408.156 480.46 406.097 480.46 406.097C480.46 406.097 474.095 412.262 473.895 414.22C473.694 416.178 467.882 426.256 458.613 423.997C449.344 421.738 444.904 419.535 444.048 413.838C443.191 408.141 450.624 391.695 451.826 389.603C453.027 387.511 455.654 384.752 457.345 381.992C459.036 379.233 468.983 364.008 470.618 358.022C472.254 352.036 477.593 343.218 477.593 343.218Z" fill="none" fill-rule="evenodd" opacity="1" stroke="#000000" stroke-linecap="round" stroke-linejoin="round" stroke-width="1"/>
</g>
</svg>
